# xmcd
#
# Track frame offsets:
#	150
#	18300
#	34452
#	56549
#	75801
#	96315
#	122353
#	145859
#	166762
#	184729
#	198182
#	217385
#	231036
#
# Disc length: 3357 seconds
#
# Revision: 1
# Processed by: cddbd v1.5.2PL0 Copyright (c) Steve Scherf et al.
# Submitted via: audiograbber 1.83.01
#
DISCID=a70d1b0d
DTITLE=Riverhead Slide - Let it Slide
DYEAR=1900
DGENRE=Blues
TTITLE0=Let it Slide
TTITLE1=Save me from myself
TTITLE2=Handyman
TTITLE3=Just th' Blues
TTITLE4=Play You for a Fool
TTITLE5=Record Collection
TTITLE6=Waking Up
TTITLE7=Naked Blues
TTITLE8=Sing in his Band
TTITLE9=She's had enough!
TTITLE10=Couldn't hold a Candle
TTITLE11=Why am I feeling this way?
TTITLE12=The Misogynist's Blues
EXTD=
EXTT0=
EXTT1=
EXTT2=
EXTT3=
EXTT4=
EXTT5=
EXTT6=
EXTT7=
EXTT8=
EXTT9=
EXTT10=
EXTT11=
EXTT12=
PLAYORDER=
